<?xml version="1.0" encoding="UTF-8"?>
<svg version="1.1" xmlns="http://www.w3.org/2000/svg" width="612" height="408">
<path d="M0 0 C0.83144531 0.00563965 1.66289062 0.0112793 2.51953125 0.01708984 C17.025536 0.30279704 28.80573041 5.8662148 39.3359375 15.828125 C45.99987083 23.06065333 52.625 33.21186226 52.625 43.3125 C49.55905406 44.84547297 46.35388147 44.43381455 42.9921875 44.41015625 C41.86443405 44.40803383 41.86443405 44.40803383 40.71389771 44.40586853 C38.3092249 44.40026465 35.90464473 44.38771157 33.5 44.375 C31.87109509 44.3699855 30.24218873 44.3654225 28.61328125 44.36132812 C24.61715173 44.35029397 20.62109158 44.33302679 16.625 44.3125 C16.23828125 43.50425781 15.8515625 42.69601563 15.453125 41.86328125 C14.67195313 40.26033203 14.67195313 40.26033203 13.875 38.625 C13.36453125 37.56925781 12.8540625 36.51351562 12.328125 35.42578125 C9.65788212 30.54462626 6.85851862 26.53674541 1.625 24.3125 C-0.48899607 24.78404805 -0.48899607 24.78404805 -2.375 26.3125 C-3.179375 26.869375 -3.98375 27.42625 -4.8125 28 C-11.15916863 33.72748144 -14.06132268 39.62117897 -14.640625 48.28515625 C-14.64585331 49.64843742 -14.64056463 51.01179765 -14.625 52.375 C-14.63273437 53.05626953 -14.64046875 53.73753906 -14.6484375 54.43945312 C-14.61256995 63.77398361 -10.55015068 71.00997011 -4.4375 77.8125 C-1.59143177 80.59763854 -1.59143177 80.59763854 2 80.6875 C3.299375 80.501875 3.299375 80.501875 4.625 80.3125 C4.625 79.6525 4.625 78.9925 4.625 78.3125 C6.2686814 76.62316078 7.9392876 74.95990076 9.625 73.3125 C13.79022508 68.7686181 14.87218076 65.50634328 17.625 59.3125 C34.95 59.8075 34.95 59.8075 52.625 60.3125 C52.625 73.0322729 46.39079922 83.36277614 37.61328125 92.37890625 C26.40031663 102.57851847 13.00058346 107.95384766 -2.25 107.62890625 C-12.16915373 106.62459193 -22.11416997 104.04120604 -30.375 98.3125 C-31.11234375 97.80847656 -31.8496875 97.30445313 -32.609375 96.78515625 C-33.19203125 96.29917969 -33.7746875 95.81320313 -34.375 95.3125 C-34.375 94.6525 -34.375 93.9925 -34.375 93.3125 C-34.9525 93.25191406 -35.53 93.19132812 -36.125 93.12890625 C-41.01087766 91.35607911 -43.62861076 85.4945018 -46.375 81.3125 C-46.79265625 80.68214844 -47.2103125 80.05179687 -47.640625 79.40234375 C-55.12950792 66.35623422 -55.57372761 50.81866726 -51.75 36.6875 C-48.70282279 27.55700888 -43.68552699 19.60295346 -36.375 13.3125 C-35.715 13.3125 -35.055 13.3125 -34.375 13.3125 C-34.045 12.3225 -33.715 11.3325 -33.375 10.3125 C-31.51953125 9.03125 -31.51953125 9.03125 -29.1875 7.8125 C-28.36894531 7.38324219 -27.55039063 6.95398438 -26.70703125 6.51171875 C-25.93746094 6.11597656 -25.16789062 5.72023437 -24.375 5.3125 C-23.385 4.755625 -22.395 4.19875 -21.375 3.625 C-14.5012814 0.61774811 -7.43668732 -0.0532496 0 0 Z " fill="#5C5C5C" transform="translate(136.375,146.6875)"/>
<path d="M0 0 C0 0.66 0 1.32 0 2 C0.5775 2.061875 1.155 2.12375 1.75 2.1875 C4.99553208 3.3594977 6.10440864 5.15661295 8 8 C9.50312916 11.68266645 10 13.98202371 10 18 C8.04233719 18.08082094 6.08373272 18.13910778 4.125 18.1875 C2.48917969 18.23970703 2.48917969 18.23970703 0.8203125 18.29296875 C-0.11039063 18.19628906 -1.04109375 18.09960938 -2 18 C-4 15 -4 15 -4 12 C-4.639375 11.690625 -5.27875 11.38125 -5.9375 11.0625 C-8 10 -8 10 -9 9 C-17.39857207 8.0895548 -17.39857207 8.0895548 -25.4140625 10.12890625 C-29.14504345 13.16925881 -31.15257957 16.19795089 -32 21 C-32.71683999 28.24804881 -31.6105683 33.2849605 -27.375 39.3125 C-23.16773545 42.30187218 -18.75969556 43.31318913 -13.625 42.73046875 C-8.91244461 41.49660712 -6.71726785 40.00480207 -4.125 35.875 C-2.2760866 33.00708319 -1.54328164 32.14336599 1.8125 31.2578125 C4.56431849 31.02615431 7.24061747 30.92144107 10 31 C10.32871094 30.14728516 10.32871094 30.14728516 10.6640625 29.27734375 C13.20493057 23.09043329 15.9453386 17.07912382 22.140625 13.90234375 C29.83628721 11.08845366 36.12910059 11.44496783 43.62890625 14.6640625 C48.89147666 17.62913512 52.25349382 22.2365296 54 28 C54.23074219 27.48050781 54.46148437 26.96101563 54.69921875 26.42578125 C57.5142704 20.40624392 60.47861642 15.89983837 66.75 13.125 C73.15771197 10.98102076 78.94756952 12.42427214 85 15 C84.98839844 14.10796875 84.97679687 13.2159375 84.96484375 12.296875 C84.95582031 11.12640625 84.94679688 9.9559375 84.9375 8.75 C84.92589844 7.58984375 84.91429687 6.4296875 84.90234375 5.234375 C85 2 85 2 86 -2 C89.63 -2 93.26 -2 97 -2 C97.02463956 5.81453214 97.04283105 13.62904188 97.05493164 21.44360352 C97.05997383 24.10441481 97.06680736 26.76522332 97.07543945 29.42602539 C97.08751009 33.24105516 97.09322929 37.05604844 97.09765625 40.87109375 C97.10281754 42.06899033 97.10797882 43.2668869 97.11329651 44.50108337 C97.11337204 45.6021492 97.11344757 46.70321503 97.11352539 47.83764648 C97.115746 48.81249496 97.11796661 49.78734344 97.12025452 50.79173279 C97 53 97 53 96 54 C94.48071962 54.07179964 92.95832518 54.08392007 91.4375 54.0625 C90.61121094 54.05347656 89.78492188 54.04445312 88.93359375 54.03515625 C88.29550781 54.02355469 87.65742188 54.01195312 87 54 C86.67 53.01 86.34 52.02 86 51 C85.46632813 51.30035156 84.93265625 51.60070312 84.3828125 51.91015625 C78.32667551 55.00109122 73.62359417 55.76027375 67 54 C61.42658946 51.11008342 57.35017014 46.87542535 55 41 C55 40.01 55 39.02 55 38 C54.34 38 53.68 38 53 38 C52.896875 38.721875 52.79375 39.44375 52.6875 40.1875 C51.34889478 45.66361228 48.6521879 48.8985414 44 52 C38.17387099 54.87013513 32.98564153 56.06792309 26.55078125 54.34375 C18.79012655 51.65246167 14.99803381 47.66306199 11.125 40.5625 C10.75375 39.716875 10.3825 38.87125 10 38 C9.61328125 38.60328125 9.2265625 39.2065625 8.828125 39.828125 C8.30734375 40.62734375 7.7865625 41.4265625 7.25 42.25 C6.73953125 43.03890625 6.2290625 43.8278125 5.703125 44.640625 C0.51592458 51.82656319 -5.99103391 54.0106083 -14.5859375 55.42578125 C-22.43337165 55.87021522 -29.98684152 53.04886599 -36.2109375 48.3203125 C-42.09788922 42.73143428 -44.70199691 36.79670351 -45.203125 28.73046875 C-45.33335505 18.88724754 -44.32714469 11.90893087 -38 4 C-27.32970109 -6.55040791 -12.78319276 -4.701864 0 0 Z M25 26 C22.43367483 29.42176689 22.63564949 32.84640421 23 37 C24.25639909 39.82689795 25.32551768 41.47004961 27.75 43.375 C31.18832218 44.33008949 33.56397688 43.90421661 37 43 C40.50165855 40.4118176 41.77470816 38.72888535 43.0625 34.5625 C42.98454913 30.11930066 41.87270176 28.33854529 39 25 C34.09630817 21.51996064 29.60573803 22.51457663 25 26 Z M68 26 C65.99923267 29.15189374 65.78014557 31.37478251 66.125 35.0625 C66.18945312 35.91972656 66.25390625 36.77695313 66.3203125 37.66015625 C67.19620693 40.675448 68.31494256 41.45111515 71 43 C74.82685105 43.97410754 77.06325103 44.38321549 80.75 42.875 C83.39607064 40.66994113 84.714013 39.21496749 86 36 C86.20004515 31.98309343 85.61371748 28.95739926 83.4375 25.5625 C78.23188496 22.22556728 72.85385918 21.85994364 68 26 Z " fill="#E6E6E6" transform="translate(255,173)"/>
<path d="M0 0 C17.325 0.495 17.325 0.495 35 1 C35 13.7197729 28.76579922 24.05027614 19.98828125 33.06640625 C8.77531663 43.26601847 -4.62441654 48.64134766 -19.875 48.31640625 C-29.79415373 47.31209193 -39.73916997 44.72870604 -48 39 C-48.73734375 38.49597656 -49.4746875 37.99195313 -50.234375 37.47265625 C-50.81703125 36.98667969 -51.3996875 36.50070313 -52 36 C-52 35.34 -52 34.68 -52 34 C-52.5775 33.93941406 -53.155 33.87882812 -53.75 33.81640625 C-59.95077109 31.56647369 -64.58031427 21.81845163 -67.32421875 15.9921875 C-68.53836352 12.4129168 -68.8260423 8.7574863 -69 5 C-66.91333603 7.69679963 -65.12756856 10.4540524 -63.375 13.375 C-59.1796761 19.68875478 -52.76137789 24.09292039 -45.5625 26.53125 C-36.67407429 28.15718153 -25.99366994 28.50552306 -18 24 C-8.97984982 17.45563 -4.50747399 10.14181649 0 0 Z " fill="#F3F3F3" transform="translate(154,206)"/>
<path d="M0 0 C0.83144531 0.00563965 1.66289062 0.0112793 2.51953125 0.01708984 C17.025536 0.30279704 28.80573041 5.8662148 39.3359375 15.828125 C45.99987083 23.06065333 52.625 33.21186226 52.625 43.3125 C49.55905406 44.84547297 46.35388147 44.43381455 42.9921875 44.41015625 C41.86443405 44.40803383 41.86443405 44.40803383 40.71389771 44.40586853 C38.3092249 44.40026465 35.90464473 44.38771157 33.5 44.375 C31.87109509 44.3699855 30.24218873 44.3654225 28.61328125 44.36132812 C24.61715173 44.35029397 20.62109158 44.33302679 16.625 44.3125 C16.23828125 43.50425781 15.8515625 42.69601563 15.453125 41.86328125 C14.67195313 40.26033203 14.67195313 40.26033203 13.875 38.625 C13.36453125 37.56925781 12.8540625 36.51351562 12.328125 35.42578125 C9.47113591 30.20325762 6.72429472 27.28708858 1.625 24.3125 C1.625 23.6525 1.625 22.9925 1.625 22.3125 C0.635 22.3125 -0.355 22.3125 -1.375 22.3125 C-1.375 21.6525 -1.375 20.9925 -1.375 20.3125 C-13.84366637 17.16015094 -24.93882849 16.81727813 -36.375 23.3125 C-41.98610901 27.17874696 -45.30745128 31.29101547 -48.375 37.3125 C-49.34701131 38.66637289 -50.33384159 40.01105198 -51.375 41.3125 C-51.01389205 30.11815359 -45.37742712 23.07103271 -38.109375 14.9296875 C-36.375 13.3125 -36.375 13.3125 -34.375 13.3125 C-34.045 12.3225 -33.715 11.3325 -33.375 10.3125 C-31.51953125 9.03125 -31.51953125 9.03125 -29.1875 7.8125 C-28.36894531 7.38324219 -27.55039063 6.95398438 -26.70703125 6.51171875 C-25.93746094 6.11597656 -25.16789062 5.72023437 -24.375 5.3125 C-23.385 4.755625 -22.395 4.19875 -21.375 3.625 C-14.5012814 0.61774811 -7.43668732 -0.0532496 0 0 Z " fill="#F3F3F3" transform="translate(136.375,146.6875)"/>
<path d="M0 0 C3.00381244 0.42053374 5.79122586 0.4804576 8.8203125 0.46484375 C9.81305176 0.460896 10.80579102 0.45694824 11.82861328 0.45288086 C12.96532471 0.44526733 12.96532471 0.44526733 14.125 0.4375 C14.22419164 6.57555474 14.29662165 12.71313853 14.34472656 18.85180664 C14.36478913 20.93815239 14.3920459 23.02444227 14.42675781 25.1105957 C14.47551159 28.11683978 14.49802267 31.12233769 14.515625 34.12890625 C14.53627014 35.05522354 14.55691528 35.98154083 14.57818604 36.93592834 C14.58026372 42.99026194 13.63994406 46.47254051 10.125 51.4375 C5.04088973 56.3878179 -0.33170815 57.72485909 -7.3125 57.75 C-14.37842182 57.62138254 -18.37320894 56.66735725 -23.75 51.875 C-27.17590832 47.94528163 -26.97046911 45.59283172 -26.875 40.4375 C-23.245 40.4375 -19.615 40.4375 -15.875 40.4375 C-15.215 42.4175 -14.555 44.3975 -13.875 46.4375 C-8.23148394 47.70441177 -4.85245867 47.50055149 0.125 44.4375 C1.57752684 42.12269574 2.2796595 40.07297334 3.125 37.4375 C2.01125 37.9325 0.8975 38.4275 -0.25 38.9375 C-5.98082241 41.08528602 -11.69881554 41.23154611 -17.625 39.75 C-23.00725243 36.61035275 -26.50722507 33.81169425 -28.40234375 27.80859375 C-30.08514512 19.36677201 -29.37760453 12.75423237 -24.875 5.4375 C-24.215 5.4375 -23.555 5.4375 -22.875 5.4375 C-22.62878906 4.81488281 -22.38257813 4.19226563 -22.12890625 3.55078125 C-20.20900078 0.31505271 -17.86591057 -0.06168657 -14.3828125 -1.09765625 C-9.43903981 -2.01402533 -4.86534717 -0.95191575 0 0 Z M-16.6875 14.1875 C-18.42068109 17.47142206 -18.32432633 19.77869985 -17.875 23.4375 C-15.73820715 26.82689556 -14.6975233 28.16332557 -10.875 29.4375 C-5.51862413 29.83591578 -5.51862413 29.83591578 -0.5 28.375 C1.92746817 25.48071103 2.56580115 23.16549231 3.125 19.4375 C1.98055113 15.39826868 1.01547523 13.16394032 -2.25 10.5 C-8.28915384 8.05558059 -12.12729626 9.78454467 -16.6875 14.1875 Z " fill="#E9E9E9" transform="translate(488.875,186.5625)"/>
<path d="M0 0 C5.45167425 4.98770197 7.72197905 11.17721199 8.25 18.4375 C8 21 8 21 7 23 C6.896875 23.7425 6.79375 24.485 6.6875 25.25 C5.64812032 29.40751873 3.82708485 32.65730509 0.3203125 35.234375 C-5.35429598 38.59530191 -10.41940615 39.81697849 -17 39 C-26.14514916 36.41957049 -26.14514916 36.41957049 -28.2890625 32.859375 C-28.52367187 32.24578125 -28.75828125 31.6321875 -29 31 C-29.66 31 -30.32 31 -31 31 C-34.60302945 24.54457223 -34.80978507 18.2880656 -34 11 C-32.42873022 5.64416646 -29.80133005 1.94627071 -25 -1 C-16.13214168 -5.32167779 -8.63998355 -4.70871769 0 0 Z M-20.5625 8.875 C-22.18676979 10.84850331 -22.18676979 10.84850331 -22 13 C-16.39 13 -10.78 13 -5 13 C-5.5739739 8.79819816 -5.5739739 8.79819816 -9 7 C-13.41131901 6.30133806 -16.90367938 6.19781418 -20.5625 8.875 Z M-22 22 C-19.90218856 26.19562288 -19.16846294 27.19998191 -15 29 C-9.99031112 28.89563148 -7.76722646 27.09105761 -4 24 C-1.1875 23.25 -1.1875 23.25 1 23 C1 22.67 1 22.34 1 22 C-6.59 22 -14.18 22 -22 22 Z " fill="#E4E4E4" transform="translate(389,189)"/>
<path d="M0 0 C3.96 0 7.92 0 12 0 C12.02463956 7.81453214 12.04283105 15.62904188 12.05493164 23.44360352 C12.05997383 26.10441481 12.06680736 28.76522332 12.07543945 31.42602539 C12.08751009 35.24105516 12.09322929 39.05604844 12.09765625 42.87109375 C12.10281754 44.06899033 12.10797882 45.2668869 12.11329651 46.50108337 C12.11337204 47.6021492 12.11344757 48.70321503 12.11352539 49.83764648 C12.115746 50.81249496 12.11796661 51.78734344 12.12025452 52.79173279 C12 55 12 55 11 56 C9.33570949 56.09823937 7.66718069 56.12973631 6 56.125 C4.63875 56.12886719 4.63875 56.12886719 3.25 56.1328125 C1 56 1 56 0 55 C-0.0935919 53.28134591 -0.11744611 51.55884256 -0.11352539 49.83764648 C-0.11344986 48.73658066 -0.11337433 47.63551483 -0.11329651 46.50108337 C-0.10813522 45.3031868 -0.10297394 44.10529022 -0.09765625 42.87109375 C-0.0962413 41.65172623 -0.09482635 40.4323587 -0.09336853 39.17604065 C-0.08774967 35.2631693 -0.07519396 31.35035419 -0.0625 27.4375 C-0.05748743 24.79231853 -0.0529241 22.14713617 -0.04882812 19.50195312 C-0.03777411 13.00128026 -0.02049683 6.50064968 0 0 Z " fill="#DDDDDD" transform="translate(400,171)"/>
<path d="M0 0 C3.79777195 3.30114023 5.87915035 7.10901971 7 12 C7.1875 15.3125 7.1875 15.3125 7 18 C6 19 6 19 3.93359375 19.09765625 C3.10988281 19.08605469 2.28617187 19.07445312 1.4375 19.0625 C0.61121094 19.05347656 -0.21507812 19.04445312 -1.06640625 19.03515625 C-2.02353516 19.01775391 -2.02353516 19.01775391 -3 19 C-3.33773437 18.28972656 -3.67546875 17.57945312 -4.0234375 16.84765625 C-4.46945312 15.92855469 -4.91546875 15.00945312 -5.375 14.0625 C-5.81585938 13.14597656 -6.25671875 12.22945312 -6.7109375 11.28515625 C-7.79199162 8.87096198 -7.79199162 8.87096198 -10 8 C-12.10955062 7.80261277 -12.10955062 7.80261277 -14.4375 7.8125 C-15.21996094 7.79832031 -16.00242187 7.78414062 -16.80859375 7.76953125 C-19.29205987 7.85913936 -19.29205987 7.85913936 -22 10 C-23.00805555 12.17897492 -23.00805555 12.17897492 -23.6875 14.625 C-23.93886719 15.44226563 -24.19023437 16.25953125 -24.44921875 17.1015625 C-24.63097656 17.72804687 -24.81273437 18.35453125 -25 19 C-27.97 19 -30.94 19 -34 19 C-36.09220265 14.81559471 -36.16673936 13.46375666 -34.88671875 9.09375 C-32.7772801 4.11287284 -29.45453675 0.92021713 -24.9375 -1.9375 C-16.98483415 -4.78278712 -7.34732565 -3.93606731 0 0 Z " fill="#E2E2E2" transform="translate(451,208)"/>
<path d="M0 0 C-0.18820875 4.31939086 -0.44350578 7.95657333 -2.5 11.8125 C-8.07012375 16.68635829 -14.12392866 18.71266355 -21.5078125 18.390625 C-27.49885114 17.45159073 -33.27810271 14.91290443 -37 10 C-38.6994119 6.6011762 -39 4.89635934 -39 1 C-35.37 1 -31.74 1 -28 1 C-27.34 2.32 -26.68 3.64 -26 5 C-22.7789089 7.30077936 -19.87720334 7.32997475 -16 7 C-12.88854054 5.36909525 -12.88854054 5.36909525 -12.3125 2.9375 C-11 1 -11 1 -9.203125 0.51953125 C-6.11439316 0.13062158 -3.11371541 0 0 0 Z " fill="#E4E4E4" transform="translate(456,186)"/>
<path d="M0 0 C0.66 0 1.32 0 2 0 C0.54175179 3.40257916 -1.31813951 5.47138868 -4 8 C-6.66566987 10.60220154 -8.93005302 12.89507954 -11 16 C-11.66 15.67 -12.32 15.34 -13 15 C-11.89847594 13.56047403 -10.7936696 12.12345929 -9.6875 10.6875 C-8.76517578 9.48673828 -8.76517578 9.48673828 -7.82421875 8.26171875 C-6.29206904 6.36211558 -4.844091 4.59614599 -3 3 C-2.34 3 -1.68 3 -1 3 C-0.67 2.01 -0.34 1.02 0 0 Z " fill="#AEAEAE" transform="translate(103,157)"/>
<path d="M0 0 C0.66 0.66 1.32 1.32 2 2 C1.59790008 5.03808825 0.33378427 7.54751432 -1.0625 10.25 C-1.42472656 10.95640625 -1.78695312 11.6628125 -2.16015625 12.390625 C-2.43730469 12.92171875 -2.71445313 13.4528125 -3 14 C-4.29887873 9.80858283 -3.42963299 7.1384113 -2 3 C-1.34 2.01 -0.68 1.02 0 0 Z " fill="#C2C2C2" transform="translate(89,174)"/>
<path d="M0 0 C0.99386719 0.00902344 1.98773438 0.01804688 3.01171875 0.02734375 C4.15060547 0.04474609 4.15060547 0.04474609 5.3125 0.0625 C5.3125 0.3925 5.3125 0.7225 5.3125 1.0625 C2.0125 1.3925 -1.2875 1.7225 -4.6875 2.0625 C-4.6875 3.0525 -4.6875 4.0425 -4.6875 5.0625 C-5.3475 5.0625 -6.0075 5.0625 -6.6875 5.0625 C-7.3475 3.7425 -8.0075 2.4225 -8.6875 1.0625 C-5.53819107 0.01273036 -3.29935544 -0.03881595 0 0 Z " fill="#BCBCBC" transform="translate(497.6875,186.9375)"/>
<path d="M0 0 C0.99 0 1.98 0 3 0 C3 0.66 3 1.32 3 2 C1.25 3.7265625 1.25 3.7265625 -1 5.625 C-1.7425 6.25664062 -2.485 6.88828125 -3.25 7.5390625 C-3.8275 8.02117187 -4.405 8.50328125 -5 9 C-5.33 8.34 -5.66 7.68 -6 7 C-5.34 6.01 -4.68 5.02 -4 4 C-3.34 4 -2.68 4 -2 4 C-1.34 2.68 -0.68 1.36 0 0 Z " fill="#A6A6A6" transform="translate(468,188)"/>
<path d="M0 0 C2.12182819 2.58309518 3.68297532 4.61840345 4 8 C3.0625 10.25 3.0625 10.25 2 12 C0.70756464 7.8803623 -0.26252625 4.33168317 0 0 Z " fill="#B7B7B7" transform="translate(85,211)"/>
<path d="M0 0 C2.14418558 3.21627837 2.67582137 5.19090105 3 9 C2.34 9.66 1.68 10.32 1 11 C-0.17571451 7.32589215 -0.07366746 3.83070817 0 0 Z " fill="#777776" transform="translate(83,202)"/>
</svg>
